<svg width="130" height="227" viewBox="0 0 130 227" fill="none" xmlns="http://www.w3.org/2000/svg">
<rect width="130" height="227" rx="20" fill="#FFF9F5"/>
<path d="M94 120.004C94 152.582 67.6005 179 35.0374 179C21.9149 179 9.79397 174.711 0 167.445V72.5546C9.79397 65.2888 21.9149 61 35.0374 61C67.6005 61 94 87.4179 94 120.004Z" fill="#ECD8DA"/>
<path d="M115.968 227H14.0324C6.2948 227 0 220.698 0 212.952V14.0478C0 6.30171 6.2948 0 14.0324 0H115.968C123.706 0 130 6.30171 130 14.0478V212.952C130 220.698 123.706 227 115.968 227ZM14.0324 0.739204C6.7024 0.739204 0.738393 6.70976 0.738393 14.0478V212.952C0.738393 220.291 6.7024 226.261 14.0324 226.261H115.968C123.298 226.261 129.262 220.291 129.262 212.952V14.0478C129.262 6.70976 123.298 0.739204 115.968 0.739204H14.0324Z" fill="#3F2520"/>
<path d="M116.631 214H13.3687C13.1652 214 13 213.776 13 213.5C13 213.224 13.1652 213 13.3687 213H116.631C116.835 213 117 213.224 117 213.5C117 213.776 116.835 214 116.631 214Z" fill="#3F2520"/>
<path d="M116.631 17H13.3687C13.1652 17 13 16.776 13 16.5C13 16.224 13.1652 16 13.3687 16H116.631C116.835 16 117 16.224 117 16.5C117 16.776 116.835 17 116.631 17Z" fill="#3F2520"/>
<path d="M79.8684 9H50.1316C49.5062 9 49 8.55267 49 8C49 7.44733 49.5062 7 50.1316 7H79.8684C80.493 7 81 7.44733 81 8C81 8.552 80.493 9 79.8684 9Z" fill="#3F2520"/>
<path d="M100 8.5C100 9.88037 98.8804 11 97.5 11C96.1196 11 95 9.88037 95 8.5C95 7.11882 96.1196 6 97.5 6C98.8804 6 100 7.11882 100 8.5Z" fill="#3F2520"/>
<path d="M117.145 37H74.8548C73.2779 37 72 35.6564 72 34C72 32.3429 73.2786 31 74.8548 31H117.145C118.722 31 120 32.3436 120 34C120 35.6564 118.722 37 117.145 37Z" fill="#70C3F2"/>
<path d="M117.152 47H89.8479C88.2748 47 87 45.6564 87 44C87 42.3429 88.2755 41 89.8479 41H117.152C118.725 41 120 42.3429 120 44C120 45.6564 118.725 47 117.152 47Z" fill="#EDB594"/>
<path d="M117.144 57H66.8562C65.2785 57 64 55.6571 64 54C64 52.3429 65.2785 51 66.8562 51H117.144C118.722 51 120 52.3436 120 54C120 55.6564 118.722 57 117.144 57Z" fill="#70C3F2"/>
<path d="M117.159 67H94.8406C93.2715 67 92 65.6564 92 64C92 62.3429 93.2715 61 94.8406 61H117.159C118.728 61 120 62.3436 120 64C120 65.6564 118.728 67 117.159 67Z" fill="#EDB594"/>
<path d="M117.15 77H85.8503C84.2758 77 83 75.6564 83 74C83 72.3429 84.2766 71 85.8503 71H117.15C118.724 71 120 72.3429 120 74C120 75.6564 118.724 77 117.15 77Z" fill="#70C3F2"/>
<path d="M31 58C22.1773 58 15 50.8222 15 42.0004C15 33.1778 22.178 26 31 26C39.8227 26 47 33.1778 47 42.0004C47 50.8222 39.822 58 31 58ZM31 26.7306C22.5806 26.7306 15.7307 33.5804 15.7307 42.0004C15.7307 50.4196 22.5806 57.2694 31 57.2694C39.4194 57.2694 46.2693 50.4196 46.2693 42.0004C46.2693 33.5804 39.4194 26.7306 31 26.7306Z" fill="#EDB594"/>
<path d="M31.5 40C31.224 40 31 39.8394 31 39.6416V30.3584C31 30.1606 31.224 30 31.5 30C31.776 30 32 30.1606 32 30.3584V39.6416C32 39.8394 31.776 40 31.5 40Z" fill="#EDB594"/>
<path d="M39.6283 43H32.3717C32.1665 43 32 42.776 32 42.5C32 42.224 32.1665 42 32.3717 42H39.6283C39.8335 42 40 42.224 40 42.5C40 42.776 39.8342 43 39.6283 43Z" fill="#EDB594"/>
<path d="M119 169H85V207H119V169Z" fill="white"/>
<path d="M112.639 180H90.3612C90.1618 180 90 179.776 90 179.5C90 179.224 90.1618 179 90.3612 179H112.639C112.838 179 113 179.224 113 179.5C113 179.776 112.839 180 112.639 180Z" fill="#EA9C75"/>
<path d="M112.639 189H90.3612C90.1618 189 90 188.776 90 188.5C90 188.224 90.1618 188 90.3612 188H112.639C112.838 188 113 188.224 113 188.5C113 188.777 112.839 189 112.639 189Z" fill="#EA9C75"/>
<path d="M112.639 197H90.3612C90.1618 197 90 196.776 90 196.5C90 196.224 90.1618 196 90.3612 196H112.639C112.838 196 113 196.224 113 196.5C113 196.776 112.839 197 112.639 197Z" fill="#EA9C75"/>
<path d="M66 125.056C66.535 127.478 67.3278 128.871 66.985 131L81.0806 130.285C80.8832 130.157 82.6379 128.082 83 122.731L73.2483 121L66 125.056Z" fill="#FF9088"/>
<path d="M72.0006 97C72.0006 97 72.7626 100.273 75.9991 101.91C75.9991 101.91 76.1631 104.324 71.9868 104.959C67.8112 105.593 68.0013 98.6367 68.0013 98.6367L72.0006 97Z" fill="#3F2520"/>
<path d="M104.972 151L105.398 158.265C105.398 158.265 114.791 160.687 114.998 163.003C115.204 165.32 101.785 165.214 97.5534 164.688C96.5428 164.562 97.2176 160.723 97.2568 158.726C97.3082 156.093 97.3346 153.079 97.3346 153.079L104.972 151Z" fill="#FF9088"/>
<path d="M30 149.606C30 149.606 27.6321 149.124 24.001 148.101C22.1475 147.579 20.4234 146.861 18.8153 147.023C16.2734 147.28 16.0622 153.77 16.0191 155.904C15.9805 157.826 15.7715 163.279 18.532 163.796C21.6115 164.374 22.5549 163.638 21.8085 162.664C20.442 160.882 20.3706 159.254 20.4933 157.751C20.665 155.64 21.5609 155.185 23.2389 154.979C24.4493 154.831 28.9658 156.57 28.9658 156.57L30 149.606Z" fill="#FF9088"/>
<path d="M69.8065 99L72 105.533L65.1612 107L64 99H69.8065Z" fill="#FF9088"/>
<path d="M64 99C64.0821 99.0875 64.1788 99.1781 64.2832 99.2772C67.358 102.077 70.083 102.069 71 101.971L69.9901 99.0008L64 99Z" fill="#FC7A77"/>
<path d="M71 92.0343C71 92.0343 68.9927 85.7933 64.0366 86.0053C59.0813 86.2165 57 89.1799 57 89.1799L61.4597 95L71 92.0343Z" fill="#3F2520"/>
<path d="M61.0253 94.8678C63.0512 98.2478 67.3613 100.96 70.1213 99.6746C73.8171 97.9537 73.4456 95.0019 71.8315 91.9447C72.1829 91.911 72.5819 91.6815 72.3943 91.3687C72.3124 91.2324 71.1353 90.7368 71.0475 90.6062C68.971 87.5067 65.3741 86.1431 62.8271 87.5605C60.1721 89.0367 58.9994 91.4871 61.0253 94.8678Z" fill="#FF9088"/>
<path d="M64.8955 87.1858C65.8523 89.9652 66.335 92.839 65.7376 95.6844C66.0047 97.5693 65.957 99.3322 65.6676 101L63.1759 97.8178L59 88.1302C59 88.1302 61.4216 86.4516 64.8955 87.1858Z" fill="#3F2520"/>
<path d="M67.9108 104.103L62.832 103C62.832 103 57.6941 104.654 61.2591 112.479C64.022 118.543 66.0605 124 66.0605 124C71.3289 121.879 76.9582 121.21 82.8935 121.777C82.8935 121.777 83.2779 118.675 82.5859 115.853C81.4276 111.13 76.8261 107.279 71.8144 104.102C71.9531 105.41 70.254 106.308 67.9108 104.103Z" fill="#70C3F2"/>
<path d="M70.2046 94.9472C70.1575 94.9341 70.1097 94.9201 70.0619 94.9024C70.0175 94.8856 69.9909 94.8221 70.0029 94.7606C70.0141 94.699 70.0553 94.6673 70.1037 94.6766C71.1622 95.0684 71.8286 94.0795 71.8564 94.0375C71.8876 93.9899 71.9414 93.9871 71.9732 94.0319C72.0071 94.0758 72.0091 94.1495 71.9779 94.1961C71.9487 94.24 71.2777 95.2373 70.2046 94.9472Z" fill="#3F2520"/>
<path d="M68.0964 91.6686C68.2596 91.9281 68.5716 92.0634 68.7949 91.9709C69.0181 91.8777 69.0663 91.592 68.904 91.3318C68.7416 91.0716 68.4287 90.9363 68.2055 91.0294C67.9822 91.1226 67.9332 91.4084 68.0964 91.6686Z" fill="#3F2520"/>
<path d="M67.0888 91.9896C67.0225 91.951 66.9854 91.8159 67.0054 91.6885C67.2203 90.3355 67.8181 90.0209 67.8432 90.0083C67.9095 89.9736 67.9778 90.0508 67.9958 90.1801C68.0134 90.3085 67.9738 90.4397 67.907 90.4745C67.8869 90.4851 67.4176 90.7418 67.2454 91.8294C67.2253 91.9558 67.1555 92.0282 67.0888 91.9896Z" fill="#3F2520"/>
<path d="M71.4863 92.9558C71.4378 92.9714 71.3853 92.9847 71.3301 92.9981C71.2843 93.0085 71.2399 92.9758 71.2304 92.9261C71.221 92.8764 71.2553 92.8333 71.2957 92.8163C71.6587 92.7361 71.7772 92.6062 71.8149 92.5135C71.8459 92.4356 71.825 92.3636 71.8129 92.3324L70.0413 91.1718C70.0015 91.1458 69.9881 91.0894 70.0116 91.0449C70.0359 91.0011 70.087 90.987 70.1274 91.013L71.92 92.187C71.9314 92.1937 71.9408 92.204 71.9483 92.2174C71.9523 92.2241 72.0459 92.3918 71.9711 92.5847C71.9065 92.7487 71.7442 92.8734 71.4863 92.9558Z" fill="#3F2520"/>
<path d="M99.6924 161L99 157.093L99.3076 157L100 160.907L99.6924 161Z" fill="#F97875"/>
<path d="M64.2475 97.7055C65.2706 98.282 66.4375 97.9862 66.8527 97.0444C67.2678 96.1026 66.7756 94.8718 65.7525 94.2945C64.7294 93.718 63.5625 94.0138 63.1473 94.9556C62.7322 95.8974 63.2244 97.1291 64.2475 97.7055Z" fill="#FF9088"/>
<path d="M65.9072 96C65.8888 96 65.8704 95.9964 65.8549 95.9888L64.0397 95.1162C63.9976 95.0963 63.9873 95.0565 64.0168 95.0275C64.0456 94.9984 64.1038 94.9912 64.1451 95.0116L65.9603 95.8842C66.0024 95.9041 66.0127 95.9439 65.9832 95.973C65.9655 95.9903 65.9367 96 65.9072 96Z" fill="#3F2520"/>
<path d="M65.0927 96C65.0882 96 65.0838 96 65.0793 95.9992C65.0291 95.9909 64.9936 95.9388 65.001 95.8817L65.1023 95.0892C65.1089 95.0329 65.1563 94.9915 65.2065 95.0015C65.2568 95.0097 65.2923 95.0619 65.2849 95.1189L65.1836 95.9115C65.177 95.9628 65.1378 96 65.0927 96Z" fill="#3F2520"/>
<path d="M65.694 135L46.4778 151.363L29.6128 149.816L29 156.601C36.2061 160.243 41.5205 163.635 48.6758 163.984C59.106 164.493 72.4396 152.56 77.142 146.574C81.8429 140.588 65.694 135 65.694 135Z" fill="#70C3F2"/>
<path d="M69.1803 154C72.0723 151.531 74.5339 149 76.239 146.96C76.2569 146.935 76.2787 146.91 76.3004 146.885C76.5374 146.586 76.7706 146.297 77 146.012L65.72 135C60.4391 142.561 63.5283 151.343 69.1803 154Z" fill="#50B1E9"/>
<path d="M83 129.761C83 129.761 75.8751 127.762 66.6706 130.243L65 135C65 135 82.3868 129.692 83 129.761Z" fill="#70C3F2"/>
<path d="M65.8276 134.65C65.8276 134.65 60.4069 144.844 68.2367 147.699C76.0664 150.553 95.7424 139.136 95.7424 139.136L97.5496 153L104.978 150.961C104.978 150.961 105.178 131.389 104.375 127.514C103.572 123.641 101.163 122.825 97.7499 123.029C94.3375 123.233 65.8276 134.65 65.8276 134.65Z" fill="#70C3F2"/>
<path d="M79.0634 128.774L70 133L70.1529 133.344L79.2163 129.119L79.0634 128.774Z" fill="#50B1E9"/>
<path d="M77.4809 131.537L75 137L75.3348 137.16L77.8157 131.697L77.4809 131.537Z" fill="#50B1E9"/>
<path d="M91.1621 142L91 141.66C93.5282 140.218 95.622 138.781 97.7888 137L98 137.307C95.8164 139.101 93.7071 140.547 91.1621 142Z" fill="#50B1E9"/>
<path d="M45.4105 152.582L44 154L44.2591 154.271L45.6696 152.853L45.4105 152.582Z" fill="#50B1E9"/>
<path d="M121.63 165H9.36973C9.16564 165 9 164.776 9 164.5C9 164.224 9.16564 164 9.36973 164H121.63C121.834 164 122 164.224 122 164.5C122 164.777 121.835 165 121.63 165Z" fill="#EDB594"/>
<path d="M83 120.279C82.9779 121.191 82.9041 121.789 82.9041 121.789C76.9626 121.227 71.3312 121.891 66.0614 124C66.0614 124 64.0244 118.572 61.264 112.537C59.8764 109.524 59.8026 107.43 60.2307 106L64.482 111.925C64.482 111.925 70.1946 119.06 83 120.279Z" fill="#50B1E9"/>
<path d="M69.5418 108.117C69.0716 105.882 61.2094 90.7105 61.2094 90.7105C61.2094 90.7105 54.1541 77.2322 49.3158 73.0328C45.4672 67.7667 43.5768 66.7891 42.562 67.0342C39.9685 67.662 43.8053 74.7934 43.8053 74.7934C43.8053 74.7934 41.5501 72.6027 41.0312 73.7534C40.5124 74.904 46.628 78.18 46.628 78.18L54.1541 95.3838C54.1541 95.3838 58.5216 107.507 60.4702 110.962C62.0672 113.793 65.6446 115.702 68.1305 114.755C70.7217 113.767 70.012 110.352 69.5418 108.117Z" fill="#FF9088"/>
<path d="M68.1565 114.752C65.7123 115.707 62.1947 113.789 60.6208 110.945C58.6988 107.473 54.4051 95.2823 54.4051 95.2823L47 78C47 78 55.7614 87.2869 57.901 91.9154C60.0478 96.5365 63.2166 107.898 65.3569 108.1C67.9447 108.344 68.0129 105.402 67.6851 103.546C68.6714 105.689 69.4112 107.436 69.549 108.085C70.0132 110.325 70.7095 113.759 68.1565 114.752Z" fill="#FC7A77"/>
<path d="M42.0626 68.362C43.4541 69.74 44.6175 71.2495 45.5633 72.8947C45.7014 73.1339 46.11 72.9232 45.9719 72.6839C45.0072 71.0074 43.8138 69.4701 42.3971 68.067C42.1943 67.866 41.8607 68.1623 42.0626 68.362Z" fill="#222221"/>
<path d="M42.1131 67.4334C44.153 68.6325 45.2973 71.0038 46.5497 72.8931C46.715 73.1422 47.1274 72.9108 46.9613 72.6602C45.6597 70.6978 44.4788 68.2843 42.353 67.0352C42.0908 66.88 41.8516 67.2789 42.1131 67.4334Z" fill="#222221"/>
<path d="M44.0246 68.3327C44.5692 69.5188 45.1138 70.7048 45.6578 71.8909C45.7724 72.1404 46.0901 71.9175 45.9754 71.6673C45.4308 70.4812 44.8862 69.2952 44.3416 68.1091C44.2276 67.8596 43.9099 68.0825 44.0246 68.3327Z" fill="#222221"/>
</svg>
